# xmcd
#
# Track frame offsets: 
#        150
#        11071
#        29205
#        81409
#        106225
#        121180
#        135933
#        155063
#        178794
#        237729
#        256775
#        294459
#        314070
#
# Disc length: 4393 seconds
#
# Revision: 0
# Processed by: cddbd v1.4PL0 Copyright (c) Steve Scherf et al.
# Submitted via: ExactAudioCopy v0.90b4
#
DISCID=bb11270d
DTITLE=Stevie Ray Vaughan - Three Bar Blues
DYEAR=1984
DGENRE=Blues
TTITLE0=Scuttle Buttin'
TTITLE1=Testify
TTITLE2=Voodoo Chile (slight return)
TTITLE3=The Things (that) I Used To Do
TTITLE4=Honey Bee
TTITLE5=Love Struck Baby
TTITLE6=Cold Shot
TTITLE7=Couldn't Stand The Weather
TTITLE8=Tin Pan Alley
TTITLE9=Pride And Joy
TTITLE10=Texas Flood
TTITLE11=Schoolgirl
TTITLE12=Mary Had A Little Lamb
EXTD=
EXTT0=
EXTT1=
EXTT2=
EXTT3=
EXTT4=
EXTT5=
EXTT6=
EXTT7=
EXTT8=
EXTT9=
EXTT10=
EXTT11=
EXTT12=
PLAYORDER=
